<svg width="336" height="300" viewBox="0 0 336 300" fill="none" xmlns="http://www.w3.org/2000/svg">
<path d="M309.006 0H26.0216C11.6503 0 0 11.5539 0 25.8065V274.194C0 288.446 11.6503 300 26.0216 300H309.006C323.377 300 335.028 288.446 335.028 274.194V25.8065C335.028 11.5539 323.377 0 309.006 0Z" fill="#537FE7"/>
<path d="M130.193 94.4969C121.144 94.6995 113.408 100.576 106.986 112.098C100.243 125.068 96.9155 139.484 96.9739 155.349C97.0906 157.259 97.295 157.433 97.6161 155.899C100.331 144.232 103.162 135.113 106.111 128.512C109 121.883 112.211 116.441 115.714 112.243C123.771 102.95 130.748 101.445 136.673 107.727C143.154 115.138 146.598 127.644 147.007 145.187C146.657 168.781 143.533 186.614 137.637 198.744C130.251 213.508 122.662 218.43 114.955 213.45C104.447 205.142 98.6086 186.73 97.4409 158.273C97.0323 157.288 96.6528 158.012 96.3609 160.444C95.8062 163.397 95.4268 166.639 95.1932 170.084C94.3175 185.543 96.3901 198.657 101.382 209.426C106.49 219.645 113.292 224.827 121.786 225.001C130.952 224.856 139.301 218.922 146.861 207.139C154.392 194.836 159.238 179.84 161.369 162.094C162.157 143.219 159.588 127.152 153.692 113.893C147.737 101.271 139.943 94.7864 130.339 94.439" fill="#E9F8F9"/>
<path d="M197.312 87.5034C192.612 79.8607 183.621 76.1262 170.34 76.3578C155.656 77.0526 141.382 81.395 127.546 89.3851C125.94 90.4273 125.882 90.7168 127.37 90.2247C138.93 86.7218 148.3 84.5795 155.511 83.8268C162.75 82.9873 169.084 83.0162 174.514 83.9426C186.657 86.2296 191.474 91.4695 188.934 99.6912C185.694 108.955 176.499 118.161 161.378 127.309C140.594 138.802 123.459 145.055 109.944 146.039C93.3339 147.082 85.2772 143.029 85.7735 133.91C87.846 120.709 100.982 106.494 125.24 91.2379C125.882 90.3984 125.064 90.4563 122.817 91.4116C119.956 92.4248 116.949 93.6986 113.797 95.2329C99.8727 102.21 89.4223 110.547 82.5333 120.216C76.1697 129.712 75.0312 138.165 79.1179 145.518C83.8177 153.306 93.188 157.504 107.258 158.111C121.766 158.43 137.295 155.101 153.847 148.037C170.719 139.265 183.475 129.046 192.087 117.35C200.143 105.915 201.895 95.9856 197.399 87.5613" fill="#E9F8F9"/>
<path d="M236.934 141.661C241.255 133.787 240.029 124.205 233.169 112.914C225.2 100.64 214.282 90.5652 200.387 82.6909C198.665 81.8225 198.402 81.9093 199.57 82.9515C208.415 91.1153 214.954 98.1211 219.245 103.911C223.594 109.73 226.747 115.172 228.644 120.296C232.731 131.876 230.542 138.622 222.105 140.532C212.385 142.385 199.774 139.085 184.216 130.689C163.811 118.588 149.771 106.98 142.123 95.892C132.927 82.1409 132.431 73.1955 140.634 69.0557C153.157 64.1921 172.131 68.3898 197.585 81.6198C198.636 81.7356 198.198 81.0698 196.213 79.6223C193.907 77.6537 191.28 75.7141 188.361 73.7745C175.313 65.2922 162.819 60.5155 150.909 59.4155C139.437 58.6917 131.497 61.9341 127.089 69.1425C122.623 77.0747 123.645 87.236 130.154 99.5975C137.131 112.22 147.815 123.886 162.235 134.569C178.319 144.672 193.644 150.52 208.152 152.054C222.164 153.241 231.738 149.796 236.818 141.719" fill="#E9F8F9"/>
<path d="M209.584 202.831C218.633 202.629 226.369 196.752 232.791 185.23C239.534 172.261 242.862 157.844 242.803 141.98C242.686 140.069 242.482 139.895 242.161 141.43C239.446 153.096 236.615 162.215 233.667 168.816C230.777 175.445 227.566 180.888 224.063 185.085C216.006 194.378 209.03 195.884 203.104 189.601C196.623 182.19 193.179 169.684 192.77 152.141C193.121 128.547 196.244 110.714 202.14 98.5843C209.526 83.8201 217.115 78.8987 224.822 83.878C235.33 92.1865 241.169 110.598 242.336 139.056C242.745 140.04 243.124 139.316 243.416 136.884C243.971 133.932 244.35 130.689 244.584 127.244C245.46 111.785 243.387 98.6712 238.395 87.902C233.287 77.6828 226.486 72.5008 217.991 72.3271C208.825 72.4719 200.477 78.4065 192.916 90.189C185.385 102.493 180.539 117.488 178.408 135.234C177.62 154.109 180.189 170.176 186.086 183.435C192.04 196.057 199.834 202.542 209.438 202.889" fill="#E9F8F9"/>
<path d="M102.755 155.688C98.4349 163.563 99.6609 173.145 106.521 184.435C114.49 196.71 125.407 206.784 139.302 214.659C141.024 215.527 141.287 215.44 140.119 214.398C131.275 206.234 124.736 199.229 120.445 193.439C116.095 187.62 112.943 182.177 111.045 177.053C106.959 165.473 109.148 158.728 117.584 156.817C127.305 154.965 139.915 158.265 155.474 166.66C175.878 178.761 189.919 190.37 197.567 201.458C206.762 215.209 207.258 224.154 199.056 228.294C186.533 233.158 167.559 228.96 142.104 215.73C141.053 215.614 141.491 216.28 143.476 217.727C145.782 219.696 148.41 221.636 151.329 223.575C164.377 232.057 176.871 236.834 188.78 237.934C200.252 238.658 208.192 235.416 212.6 228.207C217.066 220.275 216.045 210.114 209.535 197.752C202.558 185.13 191.875 173.463 177.454 162.781C161.37 152.678 146.045 146.83 131.537 145.295C117.526 144.109 107.951 147.554 102.872 155.631" fill="#E9F8F9"/>
<path d="M142.412 209.848C147.111 217.49 156.102 221.225 169.384 220.993C184.067 220.298 198.341 215.956 212.178 207.966C213.783 206.924 213.842 206.634 212.353 207.126C200.793 210.629 191.423 212.771 184.213 213.524C176.974 214.364 170.639 214.335 165.21 213.408C153.066 211.121 148.25 205.881 150.789 197.66C154.03 188.396 163.225 179.19 178.346 170.042C199.129 158.549 216.264 152.296 229.78 151.312C246.389 150.269 254.446 154.322 253.95 163.441C251.936 176.614 238.8 190.828 214.513 206.084C213.871 206.924 214.688 206.866 216.936 205.91C219.797 204.897 222.803 203.623 225.956 202.089C239.88 195.112 250.33 186.775 257.219 177.106C263.583 167.61 264.721 159.157 260.634 151.804C255.935 144.016 246.564 139.819 232.524 139.211C218.016 138.892 202.486 142.222 185.935 149.285C169.063 158.057 156.307 168.276 147.695 179.972C139.639 191.407 137.887 201.336 142.383 209.761" fill="#E9F8F9"/>
</svg>
